<svg xmlns="http://www.w3.org/2000/svg" style="display: none;">
    <symbol id="circle" viewBox="0 0 507 507">
      <path stroke-linecap="round" stroke-dasharray="0,21" stroke-width="7" stroke="#fff" fill="none" d="M253 38c118.74 0 215 96.26 215 215s-96.26 215-215 215S38 371.74 38 253 134.26 38 253 38z"/><path stroke-width="7" stroke="#ead5c4" fill="none" d="M254.77 73.46c100.14 0 181.31 81.18 181.31 181.31 0 100.14-81.17 181.31-181.31 181.31-100.13 0-181.31-81.17-181.31-181.31 0-100.13 81.18-181.31 181.31-181.31z"/><path stroke-width="2" stroke="#fff" fill="none" d="M253.5 1.99c138.91 0 251.52 112.61 251.52 251.51 0 138.91-112.61 251.51-251.52 251.51-138.9 0-251.51-112.6-251.51-251.51C1.99 114.6 114.6 1.99 253.5 1.99z"/>
    </symbol></svg>