<?xml version="1.0" encoding="utf-8"?>
<!-- Generator: Avocode 2.4.3-3630f5a - http://avocode.com -->
<svg height="507" width="507" xmlns:xlink="http://www.w3.org/1999/xlink" xmlns="http://www.w3.org/2000/svg" viewBox="0 0 507 507">
    <path stroke-linejoin="miter" stroke-linecap="round" stroke-dasharray="0,21" stroke-width="7" stroke="#ffffff" fill="none" fill-rule="evenodd" d="M 253 38 C 371.74 38 468 134.26 468 253 C 468 371.74 371.74 468 253 468 C 134.26 468 38 371.74 38 253 C 38 134.26 134.26 38 253 38 Z" />
    <path stroke-width="7" stroke="#ead5c4" fill="none" fill-rule="evenodd" d="M 254.77 73.46 C 354.91 73.46 436.08 154.64 436.08 254.77 C 436.08 354.91 354.91 436.08 254.77 436.08 C 154.64 436.08 73.46 354.91 73.46 254.77 C 73.46 154.64 154.64 73.46 254.77 73.46 Z" />
    <path stroke-width="2" stroke="#ffffff" fill="none" fill-rule="evenodd" d="M 253.5 1.99 C 392.41 1.99 505.02 114.6 505.02 253.5 C 505.02 392.41 392.41 505.01 253.5 505.01 C 114.6 505.01 1.99 392.41 1.99 253.5 C 1.99 114.6 114.6 1.99 253.5 1.99 Z" />
</svg>